<svg xmlns="http://www.w3.org/2000/svg" class="markmap mm-lhspu9-2" style="width: 100%; height: 100%;"><style>.markmap{--markmap-max-width: 9999px;--markmap-a-color: #0097e6;--markmap-a-hover-color: #00a8ff;--markmap-code-bg: #f0f0f0;--markmap-code-color: #555;--markmap-highlight-bg: #ffeaa7;--markmap-table-border: 1px solid currentColor;--markmap-font: 300 16px/20px sans-serif;--markmap-circle-open-bg: #fff;--markmap-text-color: #333;--markmap-highlight-node-bg: #ff02;font:var(--markmap-font);color:var(--markmap-text-color)}.markmap-link{fill:none}.markmap-node&gt;circle{cursor:pointer}.markmap-foreign{display:inline-block}.markmap-foreign p{margin:0}.markmap-foreign a{color:var(--markmap-a-color)}.markmap-foreign a:hover{color:var(--markmap-a-hover-color)}.markmap-foreign code{padding:.25em;font-size:calc(1em - 2px);color:var(--markmap-code-color);background-color:var(--markmap-code-bg);border-radius:2px}.markmap-foreign pre{margin:0}.markmap-foreign pre&gt;code{display:block}.markmap-foreign del{text-decoration:line-through}.markmap-foreign em{font-style:italic}.markmap-foreign strong{font-weight:700}.markmap-foreign mark{background:var(--markmap-highlight-bg)}.markmap-foreign table,.markmap-foreign th,.markmap-foreign td{border-collapse:collapse;border:var(--markmap-table-border)}.markmap-foreign img{display:inline-block}.markmap-foreign svg{fill:currentColor}.markmap-foreign&gt;div{width:var(--markmap-max-width);text-align:left}.markmap-foreign&gt;div&gt;div{display:inline-block}.markmap-highlight rect{fill:var(--markmap-highlight-node-bg)}.markmap-dark .markmap{--markmap-code-bg: #1a1b26;--markmap-code-color: #ddd;--markmap-circle-open-bg: #444;--markmap-text-color: #eee}</style><g transform="translate(20,339.8387096774194) scale(0.5329593267882188)"><path class="markmap-link" data-depth="4" data-path="1.2.4.5" d="M735,-285.406C775,-285.406,775,-350.969,815,-350.969" stroke-width="1.1875" stroke="rgb(148, 103, 189)"/><path class="markmap-link" data-depth="4" data-path="1.2.4.6" d="M735,-285.406C775,-285.406,775,-324.781,815,-324.781" stroke-width="1.1875" stroke="rgb(140, 86, 75)"/><path class="markmap-link" data-depth="4" data-path="1.2.4.7" d="M735,-285.406C775,-285.406,775,-298.594,815,-298.594" stroke-width="1.1875" stroke="rgb(227, 119, 194)"/><path class="markmap-link" data-depth="4" data-path="1.2.4.8" d="M735,-285.406C775,-285.406,775,-272.406,815,-272.406" stroke-width="1.1875" stroke="rgb(127, 127, 127)"/><path class="markmap-link" data-depth="4" data-path="1.2.4.9" d="M735,-285.406C775,-285.406,775,-246.219,815,-246.219" stroke-width="1.1875" stroke="rgb(188, 189, 34)"/><path class="markmap-link" data-depth="4" data-path="1.2.4.10" d="M735,-285.406C775,-285.406,775,-220.031,815,-220.031" stroke-width="1.1875" stroke="rgb(23, 190, 207)"/><path class="markmap-link" data-depth="3" data-path="1.2.3" d="M427,-232.562C467,-232.562,467,-382.25,507,-382.25" stroke-width="1.375" stroke="rgb(44, 160, 44)"/><path class="markmap-link" data-depth="3" data-path="1.2.4" d="M427,-232.562C467,-232.562,467,-285.406,507,-285.406" stroke-width="1.375" stroke="rgb(214, 39, 40)"/><path class="markmap-link" data-depth="3" data-path="1.2.11" d="M427,-232.562C467,-232.562,467,-188.75,507,-188.75" stroke-width="1.375" stroke="rgb(31, 119, 180)"/><path class="markmap-link" data-depth="3" data-path="1.2.12" d="M427,-232.562C467,-232.562,467,-162.375,507,-162.375" stroke-width="1.375" stroke="rgb(255, 127, 14)"/><path class="markmap-link" data-depth="3" data-path="1.2.13" d="M427,-232.562C467,-232.562,467,-136,507,-136" stroke-width="1.375" stroke="rgb(44, 160, 44)"/><path class="markmap-link" data-depth="3" data-path="1.2.14" d="M427,-232.562C467,-232.562,467,-109.625,507,-109.625" stroke-width="1.375" stroke="rgb(214, 39, 40)"/><path class="markmap-link" data-depth="3" data-path="1.2.15" d="M427,-232.562C467,-232.562,467,-83.25,507,-83.25" stroke-width="1.375" stroke="rgb(148, 103, 189)"/><path class="markmap-link" data-depth="4" data-path="1.16.17.18" d="M984,0.5C1024,0.5,1024,-51.969,1064,-51.969" stroke-width="1.1875" stroke="rgb(127, 127, 127)"/><path class="markmap-link" data-depth="4" data-path="1.16.17.19" d="M984,0.5C1024,0.5,1024,-25.781,1064,-25.781" stroke-width="1.1875" stroke="rgb(188, 189, 34)"/><path class="markmap-link" data-depth="4" data-path="1.16.17.20" d="M984,0.5C1024,0.5,1024,0.406,1064,0.406" stroke-width="1.1875" stroke="rgb(23, 190, 207)"/><path class="markmap-link" data-depth="4" data-path="1.16.17.21" d="M984,0.5C1024,0.5,1024,26.594,1064,26.594" stroke-width="1.1875" stroke="rgb(31, 119, 180)"/><path class="markmap-link" data-depth="4" data-path="1.16.17.22" d="M984,0.5C1024,0.5,1024,52.781,1064,52.781" stroke-width="1.1875" stroke="rgb(255, 127, 14)"/><path class="markmap-link" data-depth="4" data-path="1.16.23.24" d="M918,110.25C958,110.25,958,83.969,998,83.969" stroke-width="1.1875" stroke="rgb(214, 39, 40)"/><path class="markmap-link" data-depth="4" data-path="1.16.23.25" d="M918,110.25C958,110.25,958,110.156,998,110.156" stroke-width="1.1875" stroke="rgb(148, 103, 189)"/><path class="markmap-link" data-depth="4" data-path="1.16.23.26" d="M918,110.25C958,110.25,958,136.344,998,136.344" stroke-width="1.1875" stroke="rgb(140, 86, 75)"/><path class="markmap-link" data-depth="3" data-path="1.16.17" d="M708,55.563C748,55.563,748,0.5,788,0.5" stroke-width="1.375" stroke="rgb(227, 119, 194)"/><path class="markmap-link" data-depth="3" data-path="1.16.23" d="M708,55.563C748,55.563,748,110.25,788,110.25" stroke-width="1.375" stroke="rgb(44, 160, 44)"/><path class="markmap-link" data-depth="3" data-path="1.27.28" d="M441,182.375C481,182.375,481,141.625,521,141.625" stroke-width="1.375" stroke="rgb(127, 127, 127)"/><path class="markmap-link" data-depth="3" data-path="1.27.29" d="M441,182.375C481,182.375,481,170,521,170" stroke-width="1.375" stroke="rgb(188, 189, 34)"/><path class="markmap-link" data-depth="3" data-path="1.27.30" d="M441,182.375C481,182.375,481,196.375,521,196.375" stroke-width="1.375" stroke="rgb(23, 190, 207)"/><path class="markmap-link" data-depth="3" data-path="1.27.31" d="M441,182.375C481,182.375,481,222.75,521,222.75" stroke-width="1.375" stroke="rgb(31, 119, 180)"/><path class="markmap-link" data-depth="2" data-path="1.2" d="M268,11.25C308,11.25,308,-232.562,348,-232.562" stroke-width="1.75" stroke="rgb(255, 127, 14)"/><path class="markmap-link" data-depth="2" data-path="1.16" d="M268,11.25C308,11.25,308,55.563,348,55.563" stroke-width="1.75" stroke="rgb(140, 86, 75)"/><path class="markmap-link" data-depth="2" data-path="1.27" d="M268,11.25C308,11.25,308,182.375,348,182.375" stroke-width="1.75" stroke="rgb(227, 119, 194)"/><path class="markmap-link" data-depth="2" data-path="1.32" d="M268,11.25C308,11.25,308,254.313,348,254.313" stroke-width="1.75" stroke="rgb(255, 127, 14)"/><g class="markmap-highlight"/><g data-depth="3" data-path="1.2.3" class="markmap-node" transform="translate(507, -402.9375)"><line stroke="#2ca02c" stroke-width="1.375" x1="-1" x2="533" y1="20.6875" y2="20.6875"/><foreignObject class="markmap-foreign" x="8" y="0" style="opacity: 1;" width="515" height="20"><div xmlns="http://www.w3.org/1999/xhtml"><div xmlns="http://www.w3.org/1999/xhtml">
<p data-lines="6,7"><strong>Dual Pricing Modes</strong>: Toggle between Rent/Lease and Purchase options</p></div></div></foreignObject></g><g data-depth="4" data-path="1.2.4.5" class="markmap-node" transform="translate(815, -371.5625)"><line stroke="#9467bd" stroke-width="1.1875" x1="-1" x2="227" y1="20.59375" y2="20.59375"/><foreignObject class="markmap-foreign" x="8" y="0" style="opacity: 1;" width="209" height="20"><div xmlns="http://www.w3.org/1999/xhtml"><div xmlns="http://www.w3.org/1999/xhtml">Mobilisation &amp; Demobilisation</div></div></foreignObject></g><g data-depth="4" data-path="1.2.4.6" class="markmap-node" transform="translate(815, -345.375)"><line stroke="#8c564b" stroke-width="1.1875" x1="-1" x2="295" y1="20.59375" y2="20.59375"/><foreignObject class="markmap-foreign" x="8" y="0" style="opacity: 1;" width="277" height="20"><div xmlns="http://www.w3.org/1999/xhtml"><div xmlns="http://www.w3.org/1999/xhtml">Temporary Buildings (containers, tents)</div></div></foreignObject></g><g data-depth="4" data-path="1.2.4.7" class="markmap-node" transform="translate(815, -319.1875)"><line stroke="#e377c2" stroke-width="1.1875" x1="-1" x2="251" y1="20.59375" y2="20.59375"/><foreignObject class="markmap-foreign" x="8" y="0" style="opacity: 1;" width="233" height="20"><div xmlns="http://www.w3.org/1999/xhtml"><div xmlns="http://www.w3.org/1999/xhtml">Offices, Meeting Rooms &amp; HVAC</div></div></foreignObject></g><g data-depth="4" data-path="1.2.4.8" class="markmap-node" transform="translate(815, -293)"><line stroke="#7f7f7f" stroke-width="1.1875" x1="-1" x2="338" y1="20.59375" y2="20.59375"/><foreignObject class="markmap-foreign" x="8" y="0" style="opacity: 1;" width="320" height="20"><div xmlns="http://www.w3.org/1999/xhtml"><div xmlns="http://www.w3.org/1999/xhtml">Welfare Facilities (toilets, kitchens, canteens)</div></div></foreignObject></g><g data-depth="4" data-path="1.2.4.9" class="markmap-node" transform="translate(815, -266.8125)"><line stroke="#bcbd22" stroke-width="1.1875" x1="-1" x2="317" y1="20.59375" y2="20.59375"/><foreignObject class="markmap-foreign" x="8" y="0" style="opacity: 1;" width="299" height="20"><div xmlns="http://www.w3.org/1999/xhtml"><div xmlns="http://www.w3.org/1999/xhtml">Services (cleaning, security, maintenance)</div></div></foreignObject></g><g data-depth="4" data-path="1.2.4.10" class="markmap-node" transform="translate(815, -240.625)"><line stroke="#17becf" stroke-width="1.1875" x1="-1" x2="237" y1="20.59375" y2="20.59375"/><foreignObject class="markmap-foreign" x="8" y="0" style="opacity: 1;" width="219" height="20"><div xmlns="http://www.w3.org/1999/xhtml"><div xmlns="http://www.w3.org/1999/xhtml">Utilities (power, water, internet)</div></div></foreignObject></g><g data-depth="3" data-path="1.2.4" class="markmap-node" transform="translate(507, -306.09375)"><line stroke="#d62728" stroke-width="1.375" x1="-1" x2="230" y1="20.6875" y2="20.6875"/><circle stroke-width="1.5" r="6" stroke="#d62728" fill="var(--markmap-circle-open-bg)" cx="228" cy="20.6875"/><foreignObject class="markmap-foreign" x="8" y="0" style="opacity: 1;" width="212" height="20"><div xmlns="http://www.w3.org/1999/xhtml"><div xmlns="http://www.w3.org/1999/xhtml">
<p data-lines="7,8"><strong>Comprehensive Categories</strong>:</p></div></div></foreignObject></g><g data-depth="3" data-path="1.2.11" class="markmap-node" transform="translate(507, -209.4375)"><line stroke="#1f77b4" stroke-width="1.375" x1="-1" x2="529" y1="20.6875" y2="20.6875"/><foreignObject class="markmap-foreign" x="8" y="0" style="opacity: 1;" width="511" height="20"><div xmlns="http://www.w3.org/1999/xhtml"><div xmlns="http://www.w3.org/1999/xhtml">
<p data-lines="15,16"><strong>Editable Unit Rates</strong>: Customize all rates to match current market prices</p></div></div></foreignObject></g><g data-depth="3" data-path="1.2.12" class="markmap-node" transform="translate(507, -183.0625)"><line stroke="#ff7f0e" stroke-width="1.375" x1="-1" x2="497" y1="20.6875" y2="20.6875"/><foreignObject class="markmap-foreign" x="8" y="0" style="opacity: 1;" width="479" height="20"><div xmlns="http://www.w3.org/1999/xhtml"><div xmlns="http://www.w3.org/1999/xhtml">
<p data-lines="16,17"><strong>Project Duration Calculations</strong>: Automatic monthly cost projections</p></div></div></foreignObject></g><g data-depth="3" data-path="1.2.13" class="markmap-node" transform="translate(507, -156.6875)"><line stroke="#2ca02c" stroke-width="1.375" x1="-1" x2="420" y1="20.6875" y2="20.6875"/><foreignObject class="markmap-foreign" x="8" y="0" style="opacity: 1;" width="402" height="20"><div xmlns="http://www.w3.org/1999/xhtml"><div xmlns="http://www.w3.org/1999/xhtml">
<p data-lines="17,18"><strong>Data Persistence</strong>: Save and load projects as JSON files</p></div></div></foreignObject></g><g data-depth="3" data-path="1.2.14" class="markmap-node" transform="translate(507, -130.3125)"><line stroke="#d62728" stroke-width="1.375" x1="-1" x2="407" y1="20.6875" y2="20.6875"/><foreignObject class="markmap-foreign" x="8" y="0" style="opacity: 1;" width="389" height="20"><div xmlns="http://www.w3.org/1999/xhtml"><div xmlns="http://www.w3.org/1999/xhtml">
<p data-lines="18,19"><strong>Export Options</strong>: PDF (via print) and Excel/CSV export</p></div></div></foreignObject></g><g data-depth="3" data-path="1.2.15" class="markmap-node" transform="translate(507, -103.9375)"><line stroke="#9467bd" stroke-width="1.375" x1="-1" x2="485" y1="20.6875" y2="20.6875"/><foreignObject class="markmap-foreign" x="8" y="0" style="opacity: 1;" width="467" height="20"><div xmlns="http://www.w3.org/1999/xhtml"><div xmlns="http://www.w3.org/1999/xhtml">
<p data-lines="19,20"><strong>Offline Support</strong>: Works without internet connection once installed</p></div></div></foreignObject></g><g data-depth="2" data-path="1.2" class="markmap-node" transform="translate(348, -253.4375)"><line stroke="#ff7f0e" stroke-width="1.75" x1="-1" x2="81" y1="20.875" y2="20.875"/><circle stroke-width="1.5" r="6" stroke="#ff7f0e" fill="var(--markmap-circle-open-bg)" cx="79" cy="20.875"/><foreignObject class="markmap-foreign" x="8" y="0" style="opacity: 1;" width="63" height="20"><div xmlns="http://www.w3.org/1999/xhtml"><div xmlns="http://www.w3.org/1999/xhtml">Features</div></div></foreignObject></g><g data-depth="4" data-path="1.16.17.18" class="markmap-node" transform="translate(1064, -72.5625)"><line stroke="#7f7f7f" stroke-width="1.1875" x1="-1" x2="263" y1="20.59375" y2="20.59375"/><foreignObject class="markmap-foreign" x="8" y="0" style="opacity: 1;" width="245" height="20"><div xmlns="http://www.w3.org/1999/xhtml"><div xmlns="http://www.w3.org/1999/xhtml">Modular office units: €300-400/unit</div></div></foreignObject></g><g data-depth="4" data-path="1.16.17.19" class="markmap-node" transform="translate(1064, -46.375)"><line stroke="#bcbd22" stroke-width="1.1875" x1="-1" x2="259" y1="20.59375" y2="20.59375"/><foreignObject class="markmap-foreign" x="8" y="0" style="opacity: 1;" width="241" height="20"><div xmlns="http://www.w3.org/1999/xhtml"><div xmlns="http://www.w3.org/1999/xhtml">Storage containers: €100-150/unit</div></div></foreignObject></g><g data-depth="4" data-path="1.16.17.20" class="markmap-node" transform="translate(1064, -20.1875)"><line stroke="#17becf" stroke-width="1.1875" x1="-1" x2="222" y1="20.59375" y2="20.59375"/><foreignObject class="markmap-foreign" x="8" y="0" style="opacity: 1;" width="204" height="20"><div xmlns="http://www.w3.org/1999/xhtml"><div xmlns="http://www.w3.org/1999/xhtml">Portable toilets: €75-100/unit</div></div></foreignObject></g><g data-depth="4" data-path="1.16.17.21" class="markmap-node" transform="translate(1064, 6)"><line stroke="#1f77b4" stroke-width="1.1875" x1="-1" x2="364" y1="20.59375" y2="20.59375"/><foreignObject class="markmap-foreign" x="8" y="0" style="opacity: 1;" width="346" height="20"><div xmlns="http://www.w3.org/1999/xhtml"><div xmlns="http://www.w3.org/1999/xhtml">Security services: €4,000-5,000/month per guard</div></div></foreignObject></g><g data-depth="4" data-path="1.16.17.22" class="markmap-node" transform="translate(1064, 32.1875)"><line stroke="#ff7f0e" stroke-width="1.1875" x1="-1" x2="283" y1="20.59375" y2="20.59375"/><foreignObject class="markmap-foreign" x="8" y="0" style="opacity: 1;" width="265" height="20"><div xmlns="http://www.w3.org/1999/xhtml"><div xmlns="http://www.w3.org/1999/xhtml">Cleaning services: €800-1,000/month</div></div></foreignObject></g><g data-depth="3" data-path="1.16.17" class="markmap-node" transform="translate(788, -20.1875)"><line stroke="#e377c2" stroke-width="1.375" x1="-1" x2="198" y1="20.6875" y2="20.6875"/><circle stroke-width="1.5" r="6" stroke="#e377c2" fill="var(--markmap-circle-open-bg)" cx="196" cy="20.6875"/><foreignObject class="markmap-foreign" x="8" y="0" style="opacity: 1;" width="180" height="20"><div xmlns="http://www.w3.org/1999/xhtml"><div xmlns="http://www.w3.org/1999/xhtml">Rental Rates (per month)</div></div></foreignObject></g><g data-depth="4" data-path="1.16.23.24" class="markmap-node" transform="translate(998, 63.375)"><line stroke="#d62728" stroke-width="1.1875" x1="-1" x2="299" y1="20.59375" y2="20.59375"/><foreignObject class="markmap-foreign" x="8" y="0" style="opacity: 1;" width="281" height="20"><div xmlns="http://www.w3.org/1999/xhtml"><div xmlns="http://www.w3.org/1999/xhtml">Modular office units: €8,000-12,000/unit</div></div></foreignObject></g><g data-depth="4" data-path="1.16.23.25" class="markmap-node" transform="translate(998, 89.5625)"><line stroke="#9467bd" stroke-width="1.1875" x1="-1" x2="286" y1="20.59375" y2="20.59375"/><foreignObject class="markmap-foreign" x="8" y="0" style="opacity: 1;" width="268" height="20"><div xmlns="http://www.w3.org/1999/xhtml"><div xmlns="http://www.w3.org/1999/xhtml">Storage containers: €2,000-3,000/unit</div></div></foreignObject></g><g data-depth="4" data-path="1.16.23.26" class="markmap-node" transform="translate(998, 115.75)"><line stroke="#8c564b" stroke-width="1.1875" x1="-1" x2="333" y1="20.59375" y2="20.59375"/><foreignObject class="markmap-foreign" x="8" y="0" style="opacity: 1;" width="315" height="20"><div xmlns="http://www.w3.org/1999/xhtml"><div xmlns="http://www.w3.org/1999/xhtml">Site mobilisation: €10,000-20,000 (one-time)</div></div></foreignObject></g><g data-depth="3" data-path="1.16.23" class="markmap-node" transform="translate(788, 89.5625)"><line stroke="#2ca02c" stroke-width="1.375" x1="-1" x2="132" y1="20.6875" y2="20.6875"/><circle stroke-width="1.5" r="6" stroke="#2ca02c" fill="var(--markmap-circle-open-bg)" cx="130" cy="20.6875"/><foreignObject class="markmap-foreign" x="8" y="0" style="opacity: 1;" width="114" height="20"><div xmlns="http://www.w3.org/1999/xhtml"><div xmlns="http://www.w3.org/1999/xhtml">Purchase Rates</div></div></foreignObject></g><g data-depth="2" data-path="1.16" class="markmap-node" transform="translate(348, 34.6875)"><line stroke="#8c564b" stroke-width="1.75" x1="-1" x2="362" y1="20.875" y2="20.875"/><circle stroke-width="1.5" r="6" stroke="#8c564b" fill="var(--markmap-circle-open-bg)" cx="360" cy="20.875"/><foreignObject class="markmap-foreign" x="8" y="0" style="opacity: 1;" width="344" height="20"><div xmlns="http://www.w3.org/1999/xhtml"><div xmlns="http://www.w3.org/1999/xhtml">Pricing Reference (Dutch/Western Europe 2024)</div></div></foreignObject></g><g data-depth="3" data-path="1.27.28" class="markmap-node" transform="translate(521, 120.9375)"><line stroke="#7f7f7f" stroke-width="1.375" x1="-1" x2="361" y1="20.6875" y2="20.6875"/><foreignObject class="markmap-foreign" x="8" y="0" style="opacity: 1;" width="343" height="20"><div xmlns="http://www.w3.org/1999/xhtml"><div xmlns="http://www.w3.org/1999/xhtml">1. Save all files to a web server or local directory</div></div></foreignObject></g><g data-depth="3" data-path="1.27.29" class="markmap-node" transform="translate(521, 147.3125)"><line stroke="#bcbd22" stroke-width="1.375" x1="-1" x2="339" y1="22.6875" y2="22.6875"/><foreignObject class="markmap-foreign" x="8" y="0" style="opacity: 1;" width="321" height="22"><div xmlns="http://www.w3.org/1999/xhtml"><div xmlns="http://www.w3.org/1999/xhtml">2. Ensure icons are placed in an <code>icons/</code> folder</div></div></foreignObject></g><g data-depth="3" data-path="1.27.30" class="markmap-node" transform="translate(521, 175.6875)"><line stroke="#17becf" stroke-width="1.375" x1="-1" x2="367" y1="20.6875" y2="20.6875"/><foreignObject class="markmap-foreign" x="8" y="0" style="opacity: 1;" width="349" height="20"><div xmlns="http://www.w3.org/1999/xhtml"><div xmlns="http://www.w3.org/1999/xhtml">3. Access via HTTPS (required for PWA features)</div></div></foreignObject></g><g data-depth="3" data-path="1.27.31" class="markmap-node" transform="translate(521, 202.0625)"><line stroke="#1f77b4" stroke-width="1.375" x1="-1" x2="293" y1="20.6875" y2="20.6875"/><foreignObject class="markmap-foreign" x="8" y="0" style="opacity: 1;" width="275" height="20"><div xmlns="http://www.w3.org/1999/xhtml"><div xmlns="http://www.w3.org/1999/xhtml">4. Add to home screen when prompted</div></div></foreignObject></g><g data-depth="2" data-path="1.27" class="markmap-node" transform="translate(348, 161.5)"><line stroke="#e377c2" stroke-width="1.75" x1="-1" x2="95" y1="20.875" y2="20.875"/><circle stroke-width="1.5" r="6" stroke="#e377c2" fill="var(--markmap-circle-open-bg)" cx="93" cy="20.875"/><foreignObject class="markmap-foreign" x="8" y="0" style="opacity: 1;" width="77" height="20"><div xmlns="http://www.w3.org/1999/xhtml"><div xmlns="http://www.w3.org/1999/xhtml">Installation</div></div></foreignObject></g><g data-depth="2" data-path="1.32" class="markmap-node" transform="translate(348, 233.4375)"><line stroke="#ff7f0e" stroke-width="1.75" x1="-1" x2="113" y1="20.875" y2="20.875"/><foreignObject class="markmap-foreign" x="8" y="0" style="opacity: 1;" width="95" height="20"><div xmlns="http://www.w3.org/1999/xhtml"><div xmlns="http://www.w3.org/1999/xhtml">File Structure</div></div></foreignObject></g><g data-depth="1" data-path="1" class="markmap-node" transform="translate(0, -10)"><line stroke="#1f77b4" stroke-width="2.5" x1="-1" x2="270" y1="21.25" y2="21.25"/><circle stroke-width="1.5" r="6" stroke="#1f77b4" fill="var(--markmap-circle-open-bg)" cx="268" cy="21.25"/><foreignObject class="markmap-foreign" x="8" y="0" style="opacity: 1;" width="252" height="20"><div xmlns="http://www.w3.org/1999/xhtml"><div xmlns="http://www.w3.org/1999/xhtml">Temporary Facilities Cost Estimator</div></div></foreignObject></g></g></svg>